<svg xmlns="http://www.w3.org/2000/svg" xmlns:xlink="http://www.w3.org/1999/xlink" width="137.262" height="25.045" viewBox="0 0 137.262 25.045">
  <defs>
    <clipPath id="clip-path">
      <rect id="Rectangle_10" data-name="Rectangle 10" width="137.262" height="25.045" fill="#8d8ca0"/>
    </clipPath>
  </defs>
  <g id="Group_291" data-name="Group 291" transform="translate(-11.346 0)">
    <g id="Group_11" data-name="Group 11" transform="translate(11.346 0)" clip-path="url(#clip-path)">
      <path id="Path_25" data-name="Path 25" d="M75.6,22.011A2.062,2.062,0,0,0,77.8,19.773V11.051c0-5.884-3.342-7.119-6.143-7.119a6.9,6.9,0,0,0-3.68.992,6.454,6.454,0,0,0-1.467,1.235l-.075.085-.064-.092a5.462,5.462,0,0,0-4.8-2.22,6.516,6.516,0,0,0-3.412.889,6.131,6.131,0,0,0-.68.478l-.1.078-.043-.115A1.983,1.983,0,0,0,55.325,4,2.018,2.018,0,0,0,53.184,6.2v13.57a2.191,2.191,0,1,0,4.382,0V11.961a4.748,4.748,0,0,1,.923-3.09,2.913,2.913,0,0,1,2.4-1.047c1.32,0,1.7.507,1.821.673a4.5,4.5,0,0,1,.594,2.684v8.591a2.19,2.19,0,1,0,4.379,0V11.961a4.635,4.635,0,0,1,.936-3.085,2.923,2.923,0,0,1,2.389-1.052c1.321,0,1.7.507,1.821.673a4.477,4.477,0,0,1,.594,2.684v8.591A2.047,2.047,0,0,0,75.6,22.011" transform="translate(41.043 3.035)" fill="#262261"/>
      <path id="Path_26" data-name="Path 26" d="M82.5,6.256a7.241,7.241,0,0,0-5.7-2.362,8.435,8.435,0,0,0-4.4,1.148,8.061,8.061,0,0,0-3.011,3.242A10.094,10.094,0,0,0,68.316,13a8.974,8.974,0,0,0,2.433,6.585,8.843,8.843,0,0,0,6.541,2.454,11.345,11.345,0,0,0,3.12-.457,8.911,8.911,0,0,0,2.827-1.336,2.033,2.033,0,0,0,1.027-1.788,1.875,1.875,0,0,0-.955-1.625,2.01,2.01,0,0,0-2.169.218,5.846,5.846,0,0,1-1.881.877,8.123,8.123,0,0,1-1.969.25,4.532,4.532,0,0,1-3.357-1.162A4.544,4.544,0,0,1,72.739,14.5l-.018-.1h9.807a1.808,1.808,0,0,0,2.012-1.88A9.168,9.168,0,0,0,82.5,6.256m-9.685,4.667.028-.11a4.754,4.754,0,0,1,1.114-2.1,3.75,3.75,0,0,1,2.908-1.12,3.242,3.242,0,0,1,2.611,1.033,4.39,4.39,0,0,1,.937,2.2l.018.1Z" transform="translate(52.72 3.005)" fill="#262261"/>
      <path id="Path_27" data-name="Path 27" d="M27.917,3.909c-.076,0-.156,0-.238.011a7.572,7.572,0,0,0-3.614.98,5.7,5.7,0,0,0-.7.482l-.1.078-.041-.119a2,2,0,0,0-2.039-1.327,2.018,2.018,0,0,0-2.14,2.208v13.57a2.061,2.061,0,0,0,2.206,2.238,2.063,2.063,0,0,0,2.208-2.238V11.915a3.75,3.75,0,0,1,.926-2.73,4.376,4.376,0,0,1,2.863-1.152l.553-.067a1.947,1.947,0,0,0,1.933-2.209v0a1.765,1.765,0,0,0-1.818-1.846" transform="translate(14.698 3.017)" fill="#1b89c4"/>
      <path id="Path_28" data-name="Path 28" d="M40.979,17.7A10.421,10.421,0,0,0,42,12.966a10.426,10.426,0,0,0-1.022-4.738,7.654,7.654,0,0,0-2.971-3.205,8.588,8.588,0,0,0-4.427-1.129,8.573,8.573,0,0,0-4.451,1.13A7.69,7.69,0,0,0,26.179,8.23a10.44,10.44,0,0,0-1.021,4.736A10.448,10.448,0,0,0,26.179,17.7a7.669,7.669,0,0,0,2.953,3.2,8.548,8.548,0,0,0,4.449,1.132,8.592,8.592,0,0,0,4.429-1.13A7.643,7.643,0,0,0,40.979,17.7m-4.52-.794a3.545,3.545,0,0,1-2.879,1.269,3.537,3.537,0,0,1-2.895-1.265,6.06,6.06,0,0,1-1.115-3.947,6.058,6.058,0,0,1,1.111-3.96,3.566,3.566,0,0,1,2.9-1.251,3.57,3.57,0,0,1,2.883,1.256,5.99,5.99,0,0,1,1.123,3.954A6,6,0,0,1,36.46,16.91" transform="translate(19.415 3.006)" fill="#1b89c4"/>
      <path id="Path_29" data-name="Path 29" d="M48.418,5.024a9.289,9.289,0,0,0-8.878,0A7.691,7.691,0,0,0,36.588,8.23a10.446,10.446,0,0,0-1.021,4.736A10.454,10.454,0,0,0,36.588,17.7a7.676,7.676,0,0,0,2.954,3.2,9.272,9.272,0,0,0,8.876,0A7.631,7.631,0,0,0,51.388,17.7a10.416,10.416,0,0,0,1.023-4.738,10.426,10.426,0,0,0-1.023-4.738,7.659,7.659,0,0,0-2.971-3.205M46.869,16.91a3.923,3.923,0,0,1-5.774,0,6.06,6.06,0,0,1-1.114-3.947,6.058,6.058,0,0,1,1.11-3.96,3.96,3.96,0,0,1,5.781.005A5.989,5.989,0,0,1,48,12.966a6,6,0,0,1-1.127,3.944" transform="translate(27.448 3.006)" fill="#1b89c4"/>
      <path id="Path_30" data-name="Path 30" d="M58.279,1.8A1.972,1.972,0,0,0,57.785.557,1.833,1.833,0,0,0,56.237,0l-.986.1c-4.268.374-6.594,2.817-6.73,7.069l0,.085H47.305a1.809,1.809,0,0,0-2.012,1.882,1.823,1.823,0,0,0,2.012,1.913h1.21V22.806a2.19,2.19,0,1,0,4.38,0V11.054h2.642A1.824,1.824,0,0,0,57.55,9.141a1.81,1.81,0,0,0-2.013-1.882H52.9l0-.089a3.722,3.722,0,0,1,.682-2.408,3.289,3.289,0,0,1,2.291-.9l.751-.066a1.7,1.7,0,0,0,1.29-.725A2.041,2.041,0,0,0,58.279,1.8" transform="translate(34.953 0)" fill="#1b89c4"/>
      <path id="Path_31" data-name="Path 31" d="M15.829,24.986a2.077,2.077,0,0,0,2.206-2.271v-7.1h5.987a7.681,7.681,0,0,0,7.672-7.673V7.749A7.681,7.681,0,0,0,24.021.076h-10.4V11.518h-5.5a3.657,3.657,0,0,1,0-7.314l2.066,0V.076L7.3.09,7.241.1A7.674,7.674,0,0,0,0,7.763v.2a7.682,7.682,0,0,0,7.673,7.673h5.948v7.082a2.078,2.078,0,0,0,2.208,2.271m2.206-20.8h5.535a3.657,3.657,0,1,1,0,7.314H18.034Z" transform="translate(0 0.059)" fill="#1b89c4"/>
    </g>
  </g>
</svg>
