<svg xmlns="http://www.w3.org/2000/svg" width="18" height="16.875" viewBox="0 0 18 16.875">
  <path id="sliders-solid" d="M0,14.625A1.124,1.124,0,0,1,1.125,13.5H3.048a2.811,2.811,0,0,1,5.154,0h8.673a1.125,1.125,0,0,1,0,2.25H8.2a2.811,2.811,0,0,1-5.154,0H1.125A1.124,1.124,0,0,1,0,14.625Zm6.75,0A1.125,1.125,0,1,0,5.625,15.75,1.124,1.124,0,0,0,6.75,14.625ZM13.5,9a1.125,1.125,0,1,0-1.125,1.125A1.124,1.124,0,0,0,13.5,9ZM12.375,6.188a2.807,2.807,0,0,1,2.577,1.688h1.923a1.125,1.125,0,0,1,0,2.25H14.952a2.811,2.811,0,0,1-5.154,0H1.125a1.125,1.125,0,0,1,0-2.25H9.8A2.807,2.807,0,0,1,12.375,6.188ZM6.75,2.25A1.125,1.125,0,1,0,7.875,3.375,1.124,1.124,0,0,0,6.75,2.25Zm2.577,0h7.548a1.125,1.125,0,0,1,0,2.25H9.327a2.811,2.811,0,0,1-5.154,0H1.125a1.125,1.125,0,0,1,0-2.25H4.173a2.811,2.811,0,0,1,5.154,0Z" transform="translate(0 -0.563)" fill="#8d8ca0"/>
</svg>
