<svg id="Checkmark" xmlns="http://www.w3.org/2000/svg" width="20" height="20" viewBox="0 0 20 20">
  <g id="Path_32" data-name="Path 32" transform="translate(-0.459)" fill="#9cc66c">
    <path d="M 10.459228515625 19.5 C 7.863988399505615 19.5 5.461578369140625 18.5247802734375 3.694548606872559 16.75398063659668 C 1.930648565292358 14.98633003234863 0.959228515625 12.58771991729736 0.959228515625 10 C 0.959228515625 7.412280082702637 1.930648565292358 5.013669967651367 3.694548606872559 3.246020078659058 C 5.461578369140625 1.475219964981079 7.863988399505615 0.5 10.459228515625 0.5 C 13.05446815490723 0.5 15.45687866210938 1.475219964981079 17.22390937805176 3.246020078659058 C 18.98780822753906 5.013669967651367 19.959228515625 7.412280082702637 19.959228515625 10 C 19.959228515625 12.58771991729736 18.98780822753906 14.98633003234863 17.22390937805176 16.75398063659668 C 15.45687866210938 18.5247802734375 13.05446815490723 19.5 10.459228515625 19.5 Z" stroke="none"/>
    <path d="M 10.459228515625 1 C 7.997748374938965 1 5.721028327941895 1.923080444335938 4.048479080200195 3.599199295043945 C 2.378778457641602 5.27245044708252 1.459228515625 7.54563045501709 1.459228515625 10 C 1.459228515625 12.45437049865723 2.378778457641602 14.7275505065918 4.048479080200195 16.40080070495605 C 5.721028327941895 18.07691955566406 7.997748374938965 19 10.459228515625 19 C 12.92070865631104 19 15.19742870330811 18.07691955566406 16.8699779510498 16.40080070495605 C 18.5396785736084 14.7275505065918 19.459228515625 12.45437049865723 19.459228515625 10 C 19.459228515625 7.54563045501709 18.5396785736084 5.27245044708252 16.8699779510498 3.599199295043945 C 15.19742870330811 1.923080444335938 12.92070865631104 1 10.459228515625 1 M 10.459228515625 0 C 16.10885810852051 0 20.459228515625 4.38090991973877 20.459228515625 10 C 20.459228515625 15.61909008026123 16.10885810852051 20 10.459228515625 20 C 4.809598922729492 20 0.459228515625 15.61909008026123 0.459228515625 10 C 0.459228515625 4.38090991973877 4.809598922729492 0 10.459228515625 0 Z" stroke="none" fill="#9cc66c"/>
  </g>
  <path id="check" d="M42.552,95.785a2.326,2.326,0,0,1,0,2l-6,6a.658.658,0,0,1-1,0l-3-3a.666.666,0,0,1,0-1,.658.658,0,0,1,1,0l2,2,6-6A.658.658,0,0,1,42.552,95.785Z" transform="translate(-27.552 -89.785)" fill="#fff"/>
</svg>
