<svg id="Symbol_A" xmlns="http://www.w3.org/2000/svg" width="95.68" height="63.436" viewBox="0 0 95.68 63.436">
  <path id="Path_352" data-name="Path 352" d="M35.11,41.4l-1.25-.3q-1.23-.31-.69.84,4.06,8.6.11,15.76C24.14,74.27-.58,66.34,1.97,47.56Q3.2,38.47,12.54,34.2a.65.65,0,0,0,.24-.99,6.48,6.48,0,0,1-1.37-3.15.89.89,0,0,0-.89-.75l-4.23.02a1.283,1.283,0,0,1-1.156-.7A1.307,1.307,0,0,1,5.24,27.27c1.38-1.89.96-2.94.1-5.26-1.03-2.79,2.14-4.78,3.69-6.48a.835.835,0,0,0,.13-.94L7.53,11.3a1.49,1.49,0,0,1,.78-2.04,12.384,12.384,0,0,0,6.17-5.31.834.834,0,0,1,1.38-.31l3.17,2.27a.761.761,0,0,0,.94.01c3.31-2.27,7.76,2.88,9.04,5.4a12.921,12.921,0,0,0,2.23,3.4c2.38,2.27,4.85,4.73,8.4,4.78,6.74.1,15.38,1.53,20.18-4.05,2.1-2.44,1.2-7.26.84-10.27q-.21-1.83,1.63-1.78c2.68.07,5.35-.61,7.9.74,4.71,2.48,6.4,6.16,10.29,9.27a1.01,1.01,0,0,0,1.63-.65,6.872,6.872,0,0,1,3.76-5.44,1.51,1.51,0,0,1,2.11.78c.9,2.29,1.52,7.26-1.1,8.74a2.393,2.393,0,0,1-3.02-.29q-2.24-2.02-1.91.95l.65,5.62a1.88,1.88,0,0,1-1.78,2.08c-6.89.28-14.25-1.05-16.73,7.6a100.036,100.036,0,0,0-3.08,12.96,37.9,37.9,0,0,1-1.87,6.97c-2.99,8.68-14.48,6.06-21.42,5.78a1.46,1.46,0,0,1-1.29-2.02,19.257,19.257,0,0,0,.69-13.17A2.627,2.627,0,0,0,35.11,41.4Zm17.34-5.19c-5.04-.6-6.89,3.37-11.08,2.76a.66.66,0,0,0-.74.52l-.06.31a.33.33,0,0,0,.3.4l10.23.86a2.414,2.414,0,0,0,2.61-1.55l.27-.61Q55.04,36.51,52.45,36.21ZM21.82,47.41c4.1,7.07-5.85,11.06-7.86,3.89a2.473,2.473,0,0,1,.14-2.21A23.156,23.156,0,0,0,18.69,37.6a.39.39,0,0,0-.4-.43A12.917,12.917,0,0,0,6.07,53.24c1.75,7.85,11.44,12.06,18.59,7.93,8.58-4.95,8.62-16.52.52-22a.28.28,0,0,0-.41.12l-3.01,7.26a.98.98,0,0,0,.06.86Z" transform="translate(-1.787 -3.29)" fill="#0b0b0b"/>
  <path id="Path_353" data-name="Path 353" d="M71.91,37.06c-1.28-2.53-2.92-6.3-.11-7.7a2.065,2.065,0,0,1,2.18.2c2.7,2.06,4.88,9.09,6.26,12.34,1.03,2.41,3.08,3.08,4.02,5.16,2.72,6.04-7.7,9.31-8.64,2.08A43.164,43.164,0,0,0,71.91,37.06Z" transform="translate(-1.787 -3.29)" fill="#0b0b0b"/>
  <path id="Path_354" data-name="Path 354" d="M65.65,57.05c-2.94-6.44-1.9-12.76,2.36-18.33a.62.62,0,0,1,1.1.27,6.9,6.9,0,0,0,1.05,2.68.782.782,0,0,1,.01.9c-4.35,7.2-1.66,16.62,6.5,19.27,17.05,5.54,24.45-21.48,5.56-24.94a.77.77,0,0,1-.61-.57,8.686,8.686,0,0,0-1.13-2.54.52.52,0,0,1,.41-.81c9.29-.36,16.35,7.81,16.56,16.52C97.92,67.53,72.76,72.59,65.65,57.05Z" transform="translate(-1.787 -3.29)" fill="#0b0b0b"/>
</svg>
