<svg id="Symbol_A1" xmlns="http://www.w3.org/2000/svg" width="96.47" height="65.28" viewBox="0 0 96.47 65.28">
  <path id="Path_355" data-name="Path 355" d="M67.03,13.89l.53-1.4.77-1.99.74-1.38.89-1.07.97-.66,1.55-.4.92.3.46.85.13.99.27,2.64-.06,1.94-.43,1.56-.79,1.08-.69.47-.39.15-.53.05-1.28.1-.73.22-.37.28-.09.48.78,4.47,1.11,3.4L81.04,48.69l.61.69,1.59,1.18,1.19,1.31.67,1.35.15,1.28-.28,1.14-.6,1.01-.94.91-1.16.68-1.28.41-1.31.1-1.15-.22-1.02-.56-.87-.98-.55-1.43-.17-1.8.22-2.03-.1-.93L71.82,40.29,65.15,22.26l-1.19-2.88-1.43-2.54-1.69-2.19-1.96-1.87L56.76,11.3l-2.39-1.18-2.65-.89-2.92-.6-.89-.22-.55-.35-.28-.47.03-.82.23-.36.4-.19,3.06-.34,2.92.25,2.56.75,2.54,1.27L61.51,10l3.54,2.91,1.34,1.14.33.09.28-.2h0Z" transform="translate(-0.97 -5.88)" fill="#060605"/>
  <path id="Path_356" data-name="Path 356" d="M58.03,36.65l-1.06-1.07L56,35.1l-1.25-.25-3.35.23-2.11.22-17.55.67-1.1.18-.96.4-.87.58-1.62,1.84-1.5,2.77-1.63,4.22-1.05,2.8L22.5,50.5l.01,1.46.12,1.18-.1,1.18-.33,1.22-.54,1.12-.69.93-.84.72-.86.44-.94.21-1.6-.27-1.49-.95-1.36-1.6-.38-.89-.15-.88.21-1.38.7-1.3,1.19-1.26,1.54-1.08.64-.7,2.13-5.33,1.37-4.97.07-.78-.2-.65-.75-.69-.75-.11-.55.52-.5,1-1.57,2.73-.82.79-.79.38-2.62.96-2.29,1.35-2,1.77L6.77,47.68,5.62,49.99l-.67,2.47L4.79,55l.39,2.53.73,2.01,1.12,1.91,1.44,1.7,1.81,1.54,1.59,1,1.61.73,1.71.5,1.69.23,2.7-.15,2.75-.81,2.52-1.42,2.17-1.91,1.74-2.31,1.21-2.63.6-2.79-.07-2.7-.37-1.71-.66-1.7-.89-1.58L27.4,45.9l-.1-.21.03-.23,1.52-3.68.26-.08.03.02,2.01,2.42,1.58,2.68,1.07,2.83.54,2.84.03,3.09-.52,2.99-1.07,2.92-1.55,2.66-1.99,2.34-2.38,1.95-2.61,1.43-2.88.93-2.86.36-3.02-.19-3.05-.75L9.51,68.95,7.04,67.33,5.72,66.15,4.56,64.83l-1.05-1.5-.87-1.61L1.43,58.21.97,54.53l.29-3.69,1.05-3.52L3.1,45.7l.98-1.52,1.09-1.33,1.26-1.21L8.1,40.42l1.88-1.01,1.69-.98.41-.46.12-.45h0l-.17-.42-.47-.41-1.81-.76-2.02-.39-2.48-.1-.29-.04-.41-.23-.27-.39-.06-.47.15-.45,1.38-1.87L7.36,30.4h0l.56-.45,1.78-.87,2.22-.31,12.4.06,14.7.04,10.57-.39,1.42-.33,1.24-.76,5.29-4.6.53-.31.61-.1.6.12.52.33,1.26,1.35,1.22,1.65,1.04,1.81.76,1.76.47,1.62.22,1.62-.06,1.44-.35,1.37L59.07,49.84,58.18,52l-1.07,2.01L55.82,55.9l-1.36,1.56-1.39,1.22-1.53.98-1.52.62-1.63.32-.63.03-4.79-.19-4.57-.66-.64-.45-.11-.78.02-.06.49-1.7.25-1.72h0l.01-2-.3-2.01-.03-.19.08-.77.38-.67.62-.46.76-.16,11.31-.02,1.31-.21,1.18-.59.95-.93.62-1.17,2.86-8.25.06-.52Z" transform="translate(-0.97 -5.88)" fill="#060605"/>
  <path id="Path_357" data-name="Path 357" d="M90.93,61.71l1.4-2.38.75-2.29.29-2.36-.16-2.44-.61-2.37-1.04-2.22-1.42-1.98-1.72-1.63-2.03-1.28-1.65-.68-1.8-.44-.81-.33-.56-.7-1.25-2.58-.08-.65.64-.17,3.87.66,3.48,1.33,3.04,1.97,2.52,2.54,1.31,1.93,1.04,2.13L96.87,50l.44,2.39.13,2.11-.12,2.01-.37,2-.61,1.88-1.57,3-2.27,2.7-2.81,2.19L86.5,69.87l-3.44.93-3.56.23L76,70.52l-3.17-1.2-1.58-.92-1.5-1.12-1.33-1.27-1.24-1.46-1.46-2.19-1.1-2.21-.73-2.25-.36-2.27h0l.1-3.17.78-3.22,1.48-3.28,2.16-3.33.29-.01.03.04,1.67,3.83.05.26-.09.26-1.13,2.07-.73,2.06-.38,2.12v2.07l.54,2.68,1.11,2.45,1.66,2.25,2.08,1.87,2.42,1.4,2.64.89,2.65.28,2.69-.32,2.03-.69,1.96-1.11,1.75-1.45Z" transform="translate(-0.97 -5.88)" fill="#060605"/>
</svg>
