<svg id="Symbol_A2" xmlns="http://www.w3.org/2000/svg" width="96.42" height="64.19" viewBox="0 0 96.42 64.19">
  <path id="Path_358" data-name="Path 358" d="M65.03,22.33l-1.09-2.46L62.7,17.92l-1.48-1.74-1.76-1.59L57.5,13.22l-2.16-1.15-2.3-.91-2.5-.68-2.57-.42-.21-.09-.09-.19-.24-1.56.05-.27.26-.11.71-.04,3.1-.13,2.29.11,1.98.36,1.76.63.42.21,3.1,1.86,2.49,2.1,1.63,1.87,1.52,2.28,1.45,2.77,1.52,3.52,6.92,16.21,4.28,9.2.79,1.24,1.37,1.54,1.7,2,.42.8.23.85-.05,1.77-.68,1.6L83.5,59.76l-1.52.65-1.64.08-1.6-.53-1.29-1.1-.83-1.5-.13-.44-.1-1,.13-1.27.14-1.24-.12-.97-.14-.41L71.85,40.77Z" transform="translate(-0.97 -7.67)" fill="#0a0a0a"/>
  <ellipse id="Ellipse_1" data-name="Ellipse 1" cx="4.82" cy="2.65" rx="4.82" ry="2.65" transform="translate(73.507 1.566) rotate(97.5)" fill="#0a0a0a"/>
  <path id="Path_359" data-name="Path 359" d="M28.63,39.19l-.1-.1-.43-.24-.48-.04-.46.16-.35.33-2.33,3.87-1.83,4.06-1.14,3.46-.17,1.25.11,1.68.08,1.9-.35,1.29-1.1,1.47-1.49.94-1.84.27-1.76-.45-1.46-1.08-.9-1.57-.17-1.62.42-1.6.7-1.06,1.27-1.08,1.03-.86.56-.75,1.34-2.9,1.12-2.91.9-2.94.67-2.95.02-.1-.06-.63-.29-.55-.49-.39-.61-.16L5.82,35.17l-.83-.43-.21-.42-.01-.47.04-.15.27-.81,1.14-3.22,1.17-2.24,1.34-1.51,1.51-.74L11,25.1l37.46.26,2.61-.09,2.47-.33,2.32-.57,2.19-.81.03-.01.62-.12.62.13.52.36.34.53,3.65,9.53.25,1.33-.23,1.34L55.82,57.51l-.69.95-1.16.77-1.65.66-2.18.53-2.8.4-3.12.21H40.9l-2.5-.21-.55-.31-.22-.78.4-3.22.13-3.22-.39-5.52.22-.86.91-.89,1.04-.51,1.37-.25,1.59.04,2.24.3,3.65.37,1.38-.15,1.09-.36,1.03-.62.99-.86,1.62-2.19.48-1.1.24-1.08-.04-.93-.31-.82-.56-.62-.84-.48-1.04-.28-1.31-.12-1.45.07-1.3.25-1.16.45-1.01.63h0l-1.27,1.35-.92,1.8-.18.36h0l-.92.71-1.53.31-5.25.06-5.1-.39-.39-.12-.32-.26Z" transform="translate(-0.97 -7.67)" fill="#0a0a0a"/>
  <path id="Path_360" data-name="Path 360" d="M69.77,47.6l-1.28,2.6-.78,2.51-.29,2.42.19,2.31h0l.4,1.46.6,1.42,1.84,2.72L72,64.6l1.65,1.24,1.83.96,1.88.64,2.38.35,2.37-.11,2.39-.56,2.23-.98,2.02-1.37,1.74-1.73,1.34-1.94.96-2.2.46-1.96.14-2.09-.2-2.09-.55-2.17-.61-1.5-.78-1.34-1.49-1.77-1.82-1.44-2.22-1.2-2.49-.87-1.01-.42-.79-.62h0l-.74-1.29-.26-1.72.11-.35.35-.1,2.67.3,2.48.65,2.36,1.02,2.11,1.32,1.79,1.51,1.53,1.72,1.33,2,1.03,2.15.71,2.23.41,2.31.08,2.36-.26,2.38-.56,2.26-.89,2.2-1.17,2.05-1.49,1.95-2.29,2.1-2.67,1.6L85,71.18l-3.24.54-3.28-.04-3.21-.64-2.89-1.17-2.59-1.74-1.94-1.87-1.57-2.02-1.26-2.25-.87-2.36-.43-2.01-.17-2.05.08-2.07.34-2.08.59-2.07.84-2.04,1.09-1.99,1.34-1.93.05-.05.22-.04.17.15,1.53,3.67Z" transform="translate(-0.97 -7.67)" fill="#0a0a0a"/>
  <path id="Path_361" data-name="Path 361" d="M16.19,38.04h.04l.16.24-1.22,3.73-.14.23-.23.14-2.2.86-1.93,1.07L9.02,45.59,7.63,47.08h0L6.46,48.86l-.87,2.02-.48,1.8-.23,1.76.02,1.79.27,1.71.74,2.2,1.13,1.98,1.52,1.82,1.83,1.51,2.07,1.18,2.26.79,2.29.36,2.35-.06,1.62-.3,1.62-.52,1.5-.7,1.46-.92,1.86-1.66,1.45-1.97,1.07-2.31.61-2.48.13-2.55-.37-2.53-.83-2.33-1.32-2.14-.29-.36-.39-.78.09-.87.91-2.5.4-.49.56.27,1.64,1.85,1.33,1.96,1.04,2.13.73,2.18.48,2.95-.04,2.94-.55,2.96-1.04,2.81-1.51,2.57L29.6,67.21l-2.23,1.85L24.8,70.5l-2.36.83-2.54.46-2.59.07-2.73-.32-2.68-.71L9.52,69.81,7.33,68.44,5.47,66.79,3.46,64.22,2.05,61.34,1.2,58.13.97,54.8l.4-3.32,1.02-3.2,1.57-2.87L6.1,42.85l2.08-1.73,2.43-1.41,2.63-1.02Z" transform="translate(-0.97 -7.67)" fill="#0a0a0a"/>
</svg>
