<svg id="Symbol_AM" xmlns="http://www.w3.org/2000/svg" width="95.64" height="60.88" viewBox="0 0 95.64 60.88">
  <path id="Symbol_AM-2" data-name="Symbol_AM" d="M23.12,36.87l1.4-2.84.02-.16-.16-.06-13.52.02-.23-.23-.02-8.17.08-.24.24-.08,24.97-.03,2.22.23,1.51.76.44.45.52.82.32.91.12,1.06-.11,1.07-.34,1.04-.55.94-.68.74-.83.59-.27.13-.27.26.12.36,8.34,11.18.12.15.93.72,1.13.28,1.16-.19.98-.64L72.19,24.76l.23-.37.04-.42-.56-2.11-1.01-1.87-1.33-1.33-1.51-.64-.55-.06-8.2.07-.25-.07-.1-.24-.39-5.25.07-.3.3-.13,4.51-.21,4.5.13.7.05.68.09,1.47.46,1.8.96.41.23.45.09.31-.34.65-1.11.84-.83.74-.25,3.79.02.67.23,1.04,1,.7,1.13.36,1.12.12,1.15-.13,1.16-.34,1.13-.57,1.09-.78.98-.89.75-1.04.59-.33.14-.27.21-.05.33,2.08,13.82.28.53.56.24,3.09.48,2.86,1.01,3.09,1.84,2.72,2.54,1.36,1.73,1.1,1.81.89,1.96.64,2,.47,2.92-.02,2.9-.5,2.93-.98,2.8L94.5,64.44l-1.83,2.33L90.53,68.7l-2.46,1.57-2.06.89-2.21.63-2.26.34-2.39.04-2.62-.28-2.42-.61-2.31-.93-2.06-1.22-2.66-2.29-2.19-2.91-1.56-3.32-.88-3.57-.17-3.66.55-3.62,1.28-3.41L66,43.4l1.61-1.71,1.89-1.53,2.1-1.24,2.37-1.01.42-.34.11-.52-.6-4.85-.33-.74-.68.44L57.34,50.82l-2.68,2.33-.37.4-.19.38-.64,1.92-.09.5.06.51.29,1.39V61.2l-.23.47-.5.12-2.28-.15-.54.14-.17.51v3.74l-.16.38-.38.16-3.75.04-.39-.12-.13-.4.04-5.28-.12-.59-.35-.45-1.49-1.08-1.6-.7-2.16-.35-2.35.23-.44.21-.24.42-1.21,3.19-1.65,2.82L31.5,67.02l-2.45,2.06-2.76,1.58-2.97,1.05-3.09.48-3.16-.11-2.65-.57-2.6-1.04-2.4-1.45L7.14,67.11,5.52,65.33,4.2,63.45,3.14,61.4l-.77-2.1-.6-3.28.03-3.29.66-3.3,1.25-3.12L5.5,43.48l2.28-2.46,2.64-1.94,3-1.41,2.19-.61,2.33-.31h2.34l2.44.32.06.01ZM41.74,49.24,31.08,34.91l-.09-.09-.41-.08-.31.28L28.76,38.8l-.03.47.29.36,2.47,1.95,2.02,2.28h0l1.59,2.63,1.14,2.96.1.16.18.05,5.02-.03.2-.1.04-.22ZM24.46,58.06l-1.67,1.12-1.59.67-1.64.27-1.51-.15-1.36-.52-1.18-.82-1.03-1.14-.76-1.35-.46-1.48-.12-1.54.21-1.42.56-1.35.75-1.03,1.02-.89,1.21-.69,1.48-.52.4-.22.27-.37,1.74-4.13-.03-.54-.44-.31-.14-.01-2.48.31-2.26.6-2.03.88-1.8,1.18h0l-1.22,1.08L9.07,47.26,8.05,48.99,7.3,50.94l-.43,2.05-.09,2.08.26,2.07.57,1.91.89,1.82L9.6,62.4l1.61,1.62,1.75,1.27,1.94.94,2.02.58,2.23.22,2.22-.2,2.15-.6,2.03-.98,1.83-1.33,1.6-1.66,1.28-1.91,1-2.19v-.29l-.27-.1-5.77.02Zm60.73-.11-.82,1.1-.9.85-1.04.66-1.08.4-1.36.18-1.34-.15-1.37-.48-1.25-.77-1.07-1.02-.83-1.22-.52-1.29-.22-1.4.1-1.34.43-1.39.71-1.29,1.05-1.28.21-.34.04-.37-.58-5.45-.02-.07-.24-.27-.36.01-1.85,1.14L71.27,45.5l-1.4,1.6-1.11,1.74-.81,1.87-.49,1.95-.17,2,.17,2.01.58,2.15,1.01,2.08,1.36,1.86,1.78,1.71,1.95,1.3,2.05.86,2.26.47,2.27.03,2.32-.4,2.2-.83,2.03-1.21,1.77-1.57,1.41-1.8,1.07-2.07.55-1.79.28-1.93.01-1.79-.22-1.7-.46-1.7-.69-1.58L89.37,46.4l-2.15-1.93L84.62,43l-3-.95-.46.06-.09.46.77,5.14.18.47.34.33,1.6,1.2,1.19,1.26.79,1.31.4,1.37h0l.03,1.03-.18,1.06ZM27.38,44.52l-.56-.21-.49.36-1.84,4.04.09.67.49.22,5.19-.07.55-.33-.03-.64h0l-.04-.07Z" transform="translate(-1.77 -11.31)" fill="#0a0a09"/>
</svg>
