<svg id="Symbol_B" xmlns="http://www.w3.org/2000/svg" width="96.14" height="45.35" viewBox="0 0 96.14 45.35">
  <path id="Path_362" data-name="Path 362" d="M27.07,37.8l-.59-2.05-.84-1.78-1.13-1.6-1.33-1.31L21.44,29.9l-1.92-.79-2.14-.43-2.19-.04L13,29l-2.12.75-1.9,1.06L7.25,32.22,5.28,34.71l-1.32,2.9L3.69,38l-.46.1-.63-.05-.48-.21-.16-.49.03-15.96.17-.91.5-.73L16.98,5.42l1.55-1.04,1.83-.37H61.25l1.77.17,1.35.56.85.78.9,1.32,1.34,1.94,6.11,8.39,1.02,1.2,1.19.88,1.53.58,1.8.19L96.99,20l.84.28.27.84-.15,16.13-.08.3-.24.19-1.42.38-1.13-.21h0l-.64-.52-.48-.83-1.32-2.64-1.66-2.2-1.91-1.66L86.88,28.9l-1.6-.47-1.71-.22-1.72.04-1.8.29-2.3.75-1.88,1.09L74.39,31.7l-1.32,1.75-1.18,2.21-1.11,2.82-.33.62-.5.48-.62.31-.69.11-38.9-.03-.91-.16-.81-.45-.61-.7ZM18.33,7.92l-.66.13-.56.39L7.98,17.85l-.42.75v.86l.42.76.73.45.5.08,25.11-.02.61-.11.53-.33.38-.49.18-.6.01-.17.02-9.49-.12-.65-.38-.56-.56-.37-.65-.13ZM70.24,20.71l.49-.1.42-.28h0l.34-.78-.22-.82L63.91,8.32l-.45-.4-.59-.13-23.64.22-.83.32-.41.79-.01.15.01,10.22.37.89.89.37Z" transform="translate(-1.96 -4.01)" fill="#0b0b0b"/>
  <path id="Path_363" data-name="Path 363" d="M24.95,40.13l-.18,1.8-.52,1.73-.85,1.59-1.15,1.4-1.4,1.15-1.59.85-1.73.52-1.8.18-1.8-.18-1.73-.52-1.59-.85-1.4-1.15-1.15-1.4-.85-1.59-.52-1.73-.18-1.8.18-1.8.52-1.73.85-1.59,1.15-1.4,1.4-1.15,1.59-.85,1.73-.52,1.8-.18,1.8.18,1.73.52,1.59.85,1.4,1.15,1.15,1.4.85,1.59.52,1.73Zm-4.21.03-.38-1.91-1.08-1.63-1.63-1.08-1.91-.38-1.91.38L12.2,36.62l-1.08,1.63-.38,1.91.38,1.91L12.2,43.7l1.63,1.08,1.91.38,1.91-.38,1.63-1.08,1.08-1.63Z" transform="translate(-1.96 -4.01)" fill="#0b0b0b"/>
  <path id="Path_364" data-name="Path 364" d="M91.96,40.14l-.18,1.8-.52,1.73-.85,1.59-1.15,1.4-1.4,1.15-1.59.85-1.73.52-1.8.18-1.8-.18-1.73-.52-1.59-.85-1.4-1.15-1.15-1.4-.85-1.59-.52-1.73-.18-1.8.18-1.8.52-1.73.85-1.59,1.15-1.4,1.4-1.15,1.59-.85,1.73-.52,1.8-.18,1.8.18,1.73.52,1.59.85,1.4,1.15,1.15,1.4.85,1.59.52,1.73Zm-4.23.03-.38-1.91-1.08-1.62-1.62-1.08-1.91-.38-1.91.38-1.62,1.08-1.08,1.62-.38,1.91.38,1.91,1.08,1.62,1.62,1.08,1.91.38,1.91-.38,1.62-1.08,1.08-1.62Z" transform="translate(-1.96 -4.01)" fill="#0b0b0b"/>
</svg>
