<svg id="Symbol_B1" xmlns="http://www.w3.org/2000/svg" width="96.03" height="47.075" viewBox="0 0 96.03 47.075">
  <path id="Path_365" data-name="Path 365" d="M87.63,28.6C80.64,25.89,74,30.42,72,37.27a1.035,1.035,0,0,1-.99.73H31.99a.61.61,0,0,1-.59-.47,11.151,11.151,0,0,0-6.11-7.73c-2.36-1.17-7.62-1.44-10.02-.03a14.726,14.726,0,0,0-4.1,3.57c-1.12,1.4-1.33,3.32-2.34,5.01a1.128,1.128,0,0,1-.85.57,16.324,16.324,0,0,1-5.4-.12.64.64,0,0,1-.52-.63L1.99,3.14A1.07,1.07,0,0,1,3.05,2.07q32.88-.18,65.7.02a17.951,17.951,0,0,1,2.91.21,1.09,1.09,0,0,1,.8.59,119.748,119.748,0,0,0,7.99,13.9,3.39,3.39,0,0,0,3.05,1.32q6.75-.08,13.23.14a1.21,1.21,0,0,1,1.18,1.18q.21,8.38.02,16.32-.03,1.2-.54,1.34a2.455,2.455,0,0,1-3.09-2.03C93.91,32.29,90.14,29.57,87.63,28.6ZM73.46,18a.65.65,0,0,0,.58-.94L68.79,6.35a.65.65,0,0,0-.59-.36L46.65,6a.65.65,0,0,0-.65.65v10.7a.65.65,0,0,0,.65.65Z" transform="translate(-1.99 -1.985)"/>
  <path id="Path_366" data-name="Path 366" d="M29.75,39.55a9.51,9.51,0,1,1-9.51-9.51A9.51,9.51,0,0,1,29.75,39.55Zm-4.309-2.892a6.195,6.195,0,0,0-10.522,6.524,6.195,6.195,0,0,0,10.522-6.524Z" transform="translate(-1.99 -1.985)"/>
  <path id="Path_367" data-name="Path 367" d="M92.75,38.956a9.389,9.389,0,0,1-18.76-.131,9.389,9.389,0,0,1,18.76.131Zm-3.24.294a5.99,5.99,0,1,0-5.99,5.99A5.99,5.99,0,0,0,89.51,39.25Z" transform="translate(-1.99 -1.985)"/>
</svg>
