<svg id="Symbol_BE" xmlns="http://www.w3.org/2000/svg" width="96.99" height="25.64" viewBox="0 0 96.99 25.64">
  <path id="Path_368" data-name="Path 368" d="M12.18,19.61l-1.64-.5L9.05,18.9,7.7,19l-1.21.39h0l-1.14.76-.98,1.1L3.56,22.7l-.65,1.79-.26.36-.43-.01-.71-.48-.3-.54-.11-.7L1,12.98l.19-9.83.37-.83.84-.34,41.56.08h0l.71.3.29.71.1,18.68-.17,1.7-.51.74-.45.22h0l-.41-.3-.36-.82-.71-1.65-1.02-1.33h0l-1.21-.96-1.48-.69-1.38-.32-1.31-.02-1.87.51-1.81,1.18-1.54,1.75L29.7,23.85l-.69.84L27.98,25H17.26L16,24.65h0l-.45-.44-.34-.61-.19-.47-.77-1.75-.87-1.07ZM42.16,6.31l-.38-.91-.91-.38H5.29l-.91.38L4,6.31v6.38l.38.91.91.38H40.87l.91-.38.38-.91Z" transform="translate(-1 -1.98)" fill="#030303"/>
  <path id="Path_369" data-name="Path 369" d="M52.07,21.94l-.63,1.24-.59.67-.4.13-.35-.22-.04-.08-.51-1.48-.2-1.38.28-2.29.34-2.16.04-.68.29-1.28.74-1.09,5.25-5.23,1.1-.75,1.3-.3,10.28-.19,10.53.13,1.11.13.96.3.97.54.97.84,1.89,2.58,1.71,2.32.76.65.88.44,1.13.18,7.52.05.42.17.17.42v7.82l-.17.34-.37.06-.11-.05-1.62-1.53L95,20.95l-.26-.44-.35-.33-2.03-1.07-1.06-.23-1.03-.02-1.71.48-1.53,1.02-1.38,1.59-1.09,1.98-.65.77-.96.29L64.29,25l-.82-.16-.69-.44-.48-.68-.19-.8-.01-.14-.21-.89-.44-.79-.64-.68-.78-.53-1.97-.75-1.87-.07h0l-1.88.67-1.77,1.43-.25.31ZM57.48,9.22l-.78.35L53.31,13.1l-.3.59.07.65.42.5.63.19,11.86.01.81-.34.33-.81-.02-3.91-.36-.82-.83-.31ZM82.6,15.14l.58-.12.47-.37.26-.53.01-.59h0l-.16-.4L81.83,9.88l-.48-.47-.64-.18-11.4-.22-.95.37-.41.93-.09,3.29.02.29.45.77.84.31Z" transform="translate(-1 -1.98)" fill="#030303"/>
  <path id="Path_444" data-name="Path 444" d="M55.23,35.97a3.62,3.62,0,1,1-3.62-3.62,3.62,3.62,0,0,1,3.62,3.62Zm-1.495.005A2.125,2.125,0,1,0,51.61,38.1,2.125,2.125,0,0,0,53.735,35.975Z" transform="translate(-43.566 -13.95)"/>
  <path id="Path_445" data-name="Path 445" d="M55.23,35.97a3.62,3.62,0,1,1-3.62-3.62,3.62,3.62,0,0,1,3.62,3.62Zm-1.495.005A2.125,2.125,0,1,0,51.61,38.1,2.125,2.125,0,0,0,53.735,35.975Z" transform="translate(-15.566 -13.951)"/>
  <path id="Path_446" data-name="Path 446" d="M55.23,35.97a3.62,3.62,0,1,1-3.62-3.62,3.62,3.62,0,0,1,3.62,3.62Zm-1.495.005A2.125,2.125,0,1,0,51.61,38.1,2.125,2.125,0,0,0,53.735,35.975Z" transform="translate(4.434 -13.951)"/>
  <path id="Path_447" data-name="Path 447" d="M55.23,35.97a3.62,3.62,0,1,1-3.62-3.62,3.62,3.62,0,0,1,3.62,3.62Zm-1.495.005A2.125,2.125,0,1,0,51.61,38.1,2.125,2.125,0,0,0,53.735,35.975Z" transform="translate(38.434 -13.951)"/>
</svg>
