<svg id="Symbol_C" xmlns="http://www.w3.org/2000/svg" width="94.01" height="37.18" viewBox="0 0 94.01 37.18">
  <path id="Path_374" data-name="Path 374" d="M29.69,33.07l-1.14-.81-1.36-.29-13.22.04-1.91.23-1.53.66L9.06,34.28,7.9,36.43l-.35.46-.57.16-2.23-.01-.5-.21-.21-.5-.05-6.31.28-.71.71-.3h0L76,28.98l.76-.15.64-.43.43-.64.15-.76L78.1,5.69l.21-.51.5-.21,13.61-.1.99.3.64.81,1.94,5.9,1.08,5.01.65,5.29L98,28.03l-.02,7.82-.13.55-.35.45-.5.27-.56.03-.18-.04-1.02-.4L93.7,35.64l-1.59-1.76L90.6,32.23l-1.41-.89-1.17-.29-2.6.02-2.24.72-1.06.67-.96.88-1.6,2.35-.32.33-.46-.08-1.26-.68-.51-.19L76.5,35l-10.86-.09-16-.05-11.55.42-.64.11-.88.39-1.01.79-.02.01-.74.46-.71.12h0l-.69-.21-.66-.55ZM93.78,19.04l.18-.02.77-.5.16-.9L92.52,7.85l-.42-.64-.71-.24-9.31.09-.8.33-.34.79v.04l.1,9.75.34.81.82.33Z" transform="translate(-3.99 -4.87)" fill="#0b0b0b"/>
  <rect id="Rectangle_412" data-name="Rectangle 412" width="71.08" height="18.96" rx="1.19" transform="translate(0.03 0.159)" fill="#0b0b0b"/>
  <path id="Path_375" data-name="Path 375" d="M91.04,37l-.31,1.55-.88,1.31-1.31.88-1.55.31-1.55-.31-1.31-.88-.88-1.31L82.94,37l.31-1.55.88-1.31,1.31-.88,1.55-.31,1.55.31,1.31.88.88,1.31Zm-2.94.03-.33-.79-.79-.33-.79.33-.33.79.33.79.79.33.79-.33Z" transform="translate(-3.99 -4.87)" fill="#0b0b0b"/>
  <path id="Path_376" data-name="Path 376" d="M18.09,38l-.31,1.55-.88,1.31-1.31.88-1.55.31-1.55-.31-1.31-.88-.88-1.31L9.99,38l.31-1.55.88-1.31,1.31-.88,1.55-.31,1.55.31,1.31.88.88,1.31Zm-4.71.81.73.09.53-.18h0l.16-.15.27-.79-.23-.42L14.29,37H13.5l-.5.61-.02.19-.01.45.11.35Z" transform="translate(-3.99 -4.87)" fill="#0b0b0b"/>
  <path id="Path_377" data-name="Path 377" d="M30.07,37.98l-.31,1.55-.88,1.31-1.31.88-1.55.31-1.55-.31-1.31-.88-.88-1.31-.31-1.55.31-1.55.88-1.31,1.31-.88,1.55-.31,1.55.31,1.31.88.88,1.31Zm-2.982.056-.278-.676-.753-.319-.786.225-.359.637.278.676.753.319.786-.225Z" transform="translate(-3.99 -4.87)" fill="#0b0b0b"/>
</svg>
