<svg id="Symbol_C1E" xmlns="http://www.w3.org/2000/svg" width="94.798" height="30.086" viewBox="0 0 94.798 30.086">
  <rect id="Rectangle_414" data-name="Rectangle 414" width="37.76" height="15.92" rx="1.37" transform="translate(0 0.132) rotate(-0.2)" fill="#0b0b0b"/>
  <rect id="Rectangle_415" data-name="Rectangle 415" width="35.94" height="15.92" rx="0.77" transform="translate(42.889 0.097)" fill="#0b0b0b"/>
  <path id="Path_381" data-name="Path 381" d="M83.99,21.63,84,8.27l.36-.92.88-.44,3.7-.12,3.79.34.89.23.6.37.5.69.43,1.23.04.11.79,2.45,1.48,4.96.51,3.7-.01,6.62-.19,1.22-.43.54h0l-.67-.15-.91-.84L93.65,26.1l-1.81-1.06-1.61-.29-2.02.17-.43.13-.56.37-3.49,3.24-.84.33-21.91.02-.56-.19-.33-.49-.43-1.05-.62-.86-1.03-.83-1.26-.51-1.43-.2-1.55.11-.44.09-1.03.4-.91.56-2.13,2.02-.87.9-.46.31-.67.1-.64-.23-.46-.51L46,27.97l.01-3.94.31-.72.72-.3L82.62,23l.52-.1.45-.3.3-.45Zm2-6.06.12.6.34.52.52.34.6.12,5.67.01.87-.26.58-.7.13-.6-.11-.61L92.7,9.96l-.3-.48-.46-.34-.72-.17L87.57,9l-.6.12-.5.34-.34.51-.12.6Z" transform="translate(-3.172 -3.974)" fill="#0b0b0b"/>
  <path id="Path_382" data-name="Path 382" d="M13.45,25.09,11.38,25l-1.63.35L7.99,26.4,5.86,28.51l-.54.58-.6.2-.5-.38h0l-.06-.25-.23-4.59.27-.74.72-.32h.02L38.79,23l.9.37.37.91v.01l-.08,3.73-.09.7-.24.3h0l-.37-.09-.51-.48-2.22-2.62-.33-.3-.59-.24-2.75-.28-2.27.19-.42.14-.34.25-3.14,3.06-.81.34-6.95.04-.5-.11-.42-.3-.52-.59-2-2.04-.88-.54-.98-.33Z" transform="translate(-3.172 -3.974)" fill="#0b0b0b"/>
  <path id="Path_383" data-name="Path 383" d="M16.03,30.02l-.31,1.55-.87,1.31-1.31.87-1.55.31-1.55-.31-1.31-.87-.87-1.31-.31-1.55.31-1.55.87-1.31,1.31-.87,1.55-.31,1.55.31,1.31.87.87,1.31Zm-2.09-.04-.15-.75-.42-.64-.64-.42-.75-.15-.75.15-.64.42-.42.64-.15.75.15.75.42.64.64.42.75.15.75-.15.64-.42.42-.64Z" transform="translate(-3.172 -3.974)" fill="#0b0b0b"/>
  <path id="Path_384" data-name="Path 384" d="M37,30l-.31,1.54-.87,1.3-1.3.87-1.54.31-1.54-.31-1.3-.87-.87-1.3L28.96,30l.31-1.54.87-1.3,1.3-.87,1.54-.31,1.54.31,1.3.87.87,1.3Zm-2.05-.01-.15-.76-.43-.64-.64-.43-.76-.15-.76.15-.64.43-.43.64-.15.76.15.76.43.64.64.43.76.15.76-.15.64-.43.43-.64Z" transform="translate(-3.172 -3.974)" fill="#0b0b0b"/>
  <path id="Path_385" data-name="Path 385" d="M59,30.01l-.31,1.54-.87,1.3-1.3.87-1.54.31-1.54-.31-1.3-.87-.87-1.3-.31-1.54.31-1.54.87-1.3,1.3-.87,1.54-.31,1.54.31,1.3.87.87,1.3Zm-2.05-.02-.15-.76-.43-.64-.64-.43-.76-.15-.76.15-.64.43-.43.64-.15.76.15.76.43.64.64.43.76.15.76-.15.64-.43.43-.64Z" transform="translate(-3.172 -3.974)" fill="#0b0b0b"/>
  <path id="Path_386" data-name="Path 386" d="M94,30.02l-.31,1.54-.87,1.3-1.3.87-1.54.31-1.54-.31-1.3-.87-.87-1.3-.31-1.54.31-1.54.87-1.3,1.3-.87L89.98,26l1.54.31,1.3.87.87,1.3Zm-2.04-.03-.15-.75-.42-.64-.64-.42L90,28.03l-.75.15-.64.42-.42.64-.15.75.15.75.42.64.64.42.75.15.75-.15.64-.42.42-.64Z" transform="translate(-3.172 -3.974)" fill="#0b0b0b"/>
</svg>
