<svg id="Symbol_CE" xmlns="http://www.w3.org/2000/svg" width="94.12" height="27.92" viewBox="0 0 94.12 27.92">
  <path id="Path_436" data-name="Path 436" d="M77.78,11.26l.08-.35.08-1.72V9.15l.29-.79L79,8.02l12.97-.16.72.08.58.27h0l.46.48.31.67.85,2.3,1.2,2.57.62,1.73.35,2.21.09,2.71-.19,3.2-.11.46-.23.37-1.68,1.91-1.4,1.24-1.33.71-1.16.11-.88-.28-.88-.66-.8-.99-.81-1.38-.28-.38-.44-.25-.46-.17-.53-.29-.37-.41-.52-.55h0l-.6-.3-.73-.12-6.31-.13-6.67.07-.52.21-.26.5-.25,2.02-.09.27-.59.38-.64-.28-.5-.64-1.95-2.2-.86-.62-.99-.41L63,22.12l-8.66-.07-1.41.07-1.29.26-1.07.44-.92.64-.78.86-.62,1.11-.19.24-.57.05-.33-.47-.23-2.9.31-.92.87-.42h.05l26.33-.05h.01l.43-.19.16-.44-.02-.3-.34-.73-.76-.3-69.9-.05-.63-.26-.26-.62L3.03,3.74l.18-.57.55-.18,72.32.09.77.26.18.79-.15,3.58.3,3.52.26.76Zm7.174-1.615-.208-.518-.514-.219-3.34-.035-.518.208-.219.514-.008.8.208.518.514.219,3.34.035.518-.208.219-.514ZM87,15.74l.1.52.3.45.45.29.52.11,5.32-.02.54-.12.45-.31.29-.48.08-.54-.1-.45-2.26-5.4-.49-.6-.72-.24L88.4,8.83l-.91.3-.38.48-.13.6Zm-2.005-2.706-.366-.859-.866-.348-2.6.027-.859.366-.348.866.07,6.72.366.859.866.348,2.6-.027.859-.366.348-.866Zm8.217,13.355.3-.455.1-.533-.112-.531-.307-.447-.744-.726-.455-.3-.533-.1-.531.112-.447.307-.81.83-.3.455-.1.533.112.531.307.447.744.726.455.3.533.1.531-.112.447-.307Z" transform="translate(-3.03 -2.99)"/>
  <path id="Path_437" data-name="Path 437" d="M24.8,26.77l-.09-.13L22.78,24.1l-.85-.77-.98-.6-2.11-.57-3.5-.24-2.59.12-2.13.5-1.78.91-1.2,1.04L6.58,25.87l-.66.87-.48.21h0l-.3-.43-.12-1.08-.07-3.28.32-.81.8-.34h.01l18.81-.04h.01l.82.35.32.83-.13,4.29-.3.51-.6.01Z" transform="translate(-3.03 -2.99)"/>
  <path id="Path_442" data-name="Path 442" d="M84.66,24.79l.29.26.1.38-.22,1.18-.55.79h0l-.95.43-1.32-.01L75.2,26.66l-.36-.23-.08-.41.01-.03.33-.57.76-.27,2.69-.23,1.77-.39,2.07-.35,1.13.17Z" transform="translate(-3.03 -2.99)"/>
  <path id="Path_448" data-name="Path 448" d="M105.98,36.635a3.245,3.245,0,1,1-3.245-3.245A3.245,3.245,0,0,1,105.98,36.635Zm-1.051,0a2.194,2.194,0,1,0-2.194,2.194,2.194,2.194,0,0,0,2.194-2.194Z" transform="translate(-86.254 -11.96)"/>
  <path id="Path_449" data-name="Path 449" d="M105.98,36.635a3.245,3.245,0,1,1-3.245-3.245A3.245,3.245,0,0,1,105.98,36.635Zm-1.051,0a2.194,2.194,0,1,0-2.194,2.194,2.194,2.194,0,0,0,2.194-2.194Z" transform="translate(-94.254 -11.96)"/>
  <path id="Path_450" data-name="Path 450" d="M105.98,36.635a3.245,3.245,0,1,1-3.245-3.245A3.245,3.245,0,0,1,105.98,36.635Zm-1.051,0a2.194,2.194,0,1,0-2.194,2.194,2.194,2.194,0,0,0,2.194-2.194Z" transform="translate(-43.43 -12.665)"/>
  <path id="Path_451" data-name="Path 451" d="M105.98,36.635a3.245,3.245,0,1,1-3.245-3.245A3.245,3.245,0,0,1,105.98,36.635Zm-1.051,0a2.194,2.194,0,1,0-2.194,2.194,2.194,2.194,0,0,0,2.194-2.194Z" transform="translate(-51.43 -12.665)"/>
</svg>
