<svg id="Symbol_D" xmlns="http://www.w3.org/2000/svg" width="96.33" height="33.21" viewBox="0 0 96.33 33.21">
  <path id="Path_411" data-name="Path 411" d="M93.06,9.87l-.05,3.11.06,1.12.46,2.08.52,2.6.1.47.29.41.19.15.96.3.53.12.44.32.29.46.09.54L97,23.86l.3,2.26.78,2.91.23,1.19-.18,1.01h0l-.6.83-1.03.65-.57.25-.07.03-.54.09-.53-.13-.44-.33-.27-.48-.47-1.13h0l-.91-1.36-1.25-1.19-1.57-1.02-1.91-.85-1.74-.39-1.34.02-1.3.28-1.32.56-1.22.79-1.11,1.02L79,30.04l-.74,1.3-.51,1.38-.62.92L76.08,34l-37.11-.01-1.04-.31-.54-.93-.94-2.46-1.47-1.87h0l-1.1-.82-1.29-.62-1.47-.42-1.65-.22-7.69-.39-5.01.07-1.76.26-1.56.48-1.35.69-1.16.9h0l-.8.91-.67,1.06-.9,2.56-.49.79-.87.31L2.99,34h0l-.72-.29-.29-.72L2.07,7.23l.35-.85.85-.35,89.7.02.61.11.53.31.4.47.2.58.01.63-.19.49-.84.49-.46.25Zm-32.31.24-.13-.45-.53-.57-.74-.21-9.17.03-.59.13-.48.37-.28.53-.04.6,1.44,9.38.47.86.92.34,9-.03.94-.36.46-.9V19.5ZM5.01,20.06l.1.41.36.39.5.15H17.33l.72-.33.23-.77L16.75,9.71l-.32-.58-.63-.24-9.89.06-.26.04-.5.35-.19.58Zm15.76-.3.41.79.82.33,9.52.18.54-.11.44-.32.26-.48.04-.55h0l-.01-.02L31.17,9.99l-.43-.76-.83-.3-9.01.04-.52.12-.43.31-.26.47-.05.53Zm25.15-9.73-.44-.78-.83-.31-9.3.02-.53.11-.43.33-.26.48-.04.55,1.42,9.42.42.77.82.32,9.35.17.54-.11.45-.33.26-.48.04-.55ZM75.17,21.22h.1l.63-.16.5-.4.3-.57.03-.65-1.5-9.23-.52-.92-1-.36-8.61.04-.63.14-.51.39-.31.56-.05.65,1.21,8.88.5.93.97.39ZM89.98,10.21l-.04-.19-.53-.78-.9-.3-8.88.02-.66.16-.65.64-.16.9,1.28,9,.49.9.96.38,9,.18.97-.33.53-.89v-.49Z" transform="translate(-1.98 -6.03)" fill="#050605"/>
  <path id="Path_412" data-name="Path 412" d="M21.87,33.74l-.11,1.07-.31,1.03-.51.96-.68.83-.83.68-.96.51-1.03.31-1.07.11-1.07-.11-1.03-.31-.96-.51-.83-.68-.68-.83-.51-.96-.31-1.03-.11-1.07.11-1.07.31-1.03.51-.96.68-.83.83-.68.96-.51,1.03-.31,1.07-.11,1.07.11,1.03.31.96.51.83.68.68.83.51.96.31,1.03ZM18.5,31.784l-.78-.556-.981-.187-1.033.21-.928.575-.681.853-.331,1,.07,1,.46.84.78.556.981.188,1.033-.21.927-.575.681-.853.331-1-.07-1Z" transform="translate(-1.98 -6.03)" fill="#050605"/>
  <path id="Path_413" data-name="Path 413" d="M34.9,33.66l-.11,1.07-.31,1.03-.5.94-.69.83-.83.69-.94.5-1.03.31-1.07.11-1.07-.11-1.03-.31-.94-.5-.83-.69-.69-.83-.5-.94-.31-1.03-.11-1.07.11-1.07.31-1.03.5-.94.69-.83.83-.69.94-.5,1.03-.31,1.07-.11,1.07.11,1.03.31.94.5.83.69.69.83.5.94.31,1.03Zm-3.239-1.653-.728-.673-.961-.329-1.048.064-.976.448-.755.764-.419.963-.019,1.015.383.914.728.673.961.329,1.048-.064.976-.448.755-.764.419-.963.019-1.015Z" transform="translate(-1.98 -6.03)" fill="#050605"/>
  <path id="Path_414" data-name="Path 414" d="M91.557,33.513l-.034,1.045-.245,1.02-.447.955-.632.854-.793.72-.923.558-1.017.375-1.073.178L85.3,39.19l-1.06-.23-.992-.424-.885-.6-.745-.758-.576-.883-.385-.975-.179-1.03.034-1.045.245-1.02.447-.955.632-.854.793-.72.923-.558,1.017-.375,1.073-.178,1.087.027,1.06.23.992.424.885.6.745.758.576.884.385.975ZM88.876,34l-.168-.94-.576-.82-.9-.575-1.079-.242-1.1.128-.951.478-.658.755-.265.917.168.94.576.82.9.575,1.079.242,1.1-.128.951-.478.658-.755Z" transform="translate(-1.98 -6.03)" fill="#050605"/>
</svg>
