<svg id="Symbol_D1" xmlns="http://www.w3.org/2000/svg" width="95.08" height="50.98" viewBox="0 0 95.08 50.98">
  <path id="Path_415" data-name="Path 415" d="M91,15.28l.56,4.15.77,4.13.19.46.36.36,1.32.75,1.45.86.83.91.41,1.47.2,6.82-.17,6.3-.19.99-.43.76h0l-1.06.72-.48.06-.46-.18-1.34-1.33-1.34-2.25-1.5-2.43-1.77-1.65-2.34-1.26-2.85-.81-3.06-.28-2.13.19-1.93.56-2.43,1.33-2.18,2.03-1.76,2.57-1.39,3.13-.3.57-.47.46-.58.29-.65.1-29.55-.09-.67-.2-.45-.52-.66-1.56-1.12-2.53-1.02-1.8-1.13-1.43-1.26-1.09-.15-.1-2.2-1.1-2.52-.62-2.81-.14-2.81.38-2.46.81-2.18,1.24-1.7,1.62-1.1,1.84-.42,1.31-.19,1.45-.2,1.08-.49.77h0l-.79.47L9.31,45H4.5l-1.09-.16-.78-.47h0l-.46-.78L2.01,42.5,2.05,5.04l.31-.74.74-.31,87.4.05,1.4.2,1.01.6.48.7.27.91-.06.5-.35.34L90.96,8.52l-.46.38-.28.52-.06.6.18.56.01.02.48,1.44.13,2.04ZM43.91,9.52l-.22-.63-.43-.52-.58-.33-.66-.12-13.43.02-.72.14-.62.41-.42.61-.15.72h0l.02.35,2.36,14.22.04.18.26.57.42.46.55.29.62.11,13.49.07.65-.11.58-.34.43-.51.24-.62v-.66Zm6.44,15.51.01.02.43.77.84.3,14.74-.07.53-.12.44-.33.25-.48.04-.54L65.25,8.88l-.03-.16-.47-.68-.79-.25-14.59.24h-.12l-.49.16-.38.33-.22.46-.03.51Zm21.18-.76h0l.21.66.44.55.6.36.68.13,13.58.12.84-.18.68-.52.4-.75.04-.86L86.53,9.48l-.23-.65-.44-.53-.6-.34-.68-.12-13.07.1-.64.11-.57.32-.44.48-.25.59h0l-.04.74ZM23.55,26.01l.53-.12.44-.32.26-.47.04-.54L22.69,9.07l-.01-.08-.45-.74-.81-.29L6.27,8.02l-.91.37-.37.91.02,15.42.01.2.44.77.83.31Z" transform="translate(-2.01 -3.99)" fill="#090909"/>
  <path id="Path_416" data-name="Path 416" d="M32.46,45.63l-.18,1.82-.53,1.75-.86,1.61-1.16,1.42-1.42,1.16-1.61.86-1.75.53-1.82.18-1.82-.18-1.75-.53-1.61-.86-1.42-1.16-1.16-1.42-.86-1.61-.53-1.75-.18-1.82.18-1.82.53-1.75.86-1.61,1.16-1.42,1.42-1.16,1.61-.86,1.75-.53,1.82-.18,1.82.18,1.75.53,1.61.86,1.42,1.16,1.16,1.42.86,1.61.53,1.75Zm-4.426-.514-.583-1.706-1.23-1.356-1.69-.8-1.892-.121-1.807.575-1.446,1.184-.866,1.613-.153,1.8.583,1.706,1.23,1.356,1.69.8,1.892.121,1.807-.575,1.446-1.184.866-1.613Z" transform="translate(-2.01 -3.99)" fill="#090909"/>
  <path id="Path_417" data-name="Path 417" d="M90.21,45.62l-.18,1.82L89.5,49.2l-.87,1.61-1.16,1.42-1.42,1.16-1.61.87-1.76.53-1.82.18-1.82-.18-1.76-.53-1.61-.87-1.42-1.16-1.16-1.42-.87-1.61-.53-1.76-.18-1.82.18-1.82.53-1.76.87-1.61,1.16-1.42,1.42-1.16,1.61-.87,1.76-.53,1.82-.18,1.82.18,1.76.53,1.61.87,1.42,1.16,1.16,1.42.87,1.61.53,1.76Zm-4.553.872-.085-1.8-.807-1.649L83.36,41.8l-1.791-.646-1.9.048-1.726.735-1.286,1.31L76,44.928l.085,1.8.807,1.649L78.3,49.624l1.791.646,1.9-.048,1.726-.735,1.286-1.31Z" transform="translate(-2.01 -3.99)" fill="#090909"/>
</svg>
