<svg id="Symbol_D1E" xmlns="http://www.w3.org/2000/svg" width="97.15" height="31.125" viewBox="0 0 97.15 31.125">
  <path id="Path_418" data-name="Path 418" d="M49.87,23.62l-.82.55-.99,1.02-2.44,3.46-.34.33-.5.11-3.66-.11-.8-.35-.32-.8.13-22.76.31-.74.74-.3L95.25,4l.1.01.41.28.05.5-.5,2.13-.07,2.37.38,2.73.87,3.56.48.78.46.44,1.02,1.59.57,2.03.13,2.46-.24,3.29-.03.24-.26.75-.58.56-.76.22-.79-.14h0l-.45-.29-1.48-1.52-2.06-2-.86-.56-.96-.38-2.01-.31-1.87.2-1.24.48-1.28.83-2.91,2.9-.21.23-.63.46-.77.16-18.57-.03-.77-.23-.53-.61-.71-1.35-.82-1.1-.94-.86-1.04-.62h0l-1.39-.41-1.55-.07-1.71.27ZM43.1,15.56l.13.56.32.47.48.32.56.11,8.15.06.6-.12.5-.35h0l.35-.6.04-.68L52.84,7.19l-.51-.9-.98-.35-6.96.08-.96.36-.5.89h0l-.02.29Zm14.23.32.03.13.49.73.83.29,7.28.1.89-.31.49-.81v-.52L65.75,7.08l-.49-.82-.9-.31-7.11.1-.94.38-.43.92.02.33Zm13.03.25.17.45.44.41.58.14,7.36-.05.81-.32.38-.79-.02-.28L78.72,6.98l-.05-.21-.44-.58-.7-.22H70.06l-.82.33-.38.8.02.27ZM82.1,7.1l.01,2.08.43,2.69.5,3.88.31.93.92.32,7.48.07.57-.11.47-.33.31-.49.08-.57h0l-.01-.11L91.93,6.89l-.36-.65-.69-.26-7.66.09-.8.27Z" transform="translate(-2 -4)"/>
  <rect id="Rectangle_418" data-name="Rectangle 418" width="34.84" height="15.08" rx="0.77" transform="translate(0.033 2.031) rotate(-0.2)"/>
  <path id="Path_419" data-name="Path 419" d="M15.28,27.95l-1.81-1.57-.95-.46-.93-.2-1.37.11-1.51.62L7.14,27.52,5.1,29.29l-.78.7-.45.27-.66.07-.63-.24-.43-.51L2,28.92l.13-5.24.21-.47.48-.2,33.25-.02.46.14.23.42.33,2.86-.22,2.38-.27.77-.35.3h0l-.42-.17-.51-.65-1.44-1.76-1.71-1.1h0l-1.1-.33-1.18-.12-2.64.41-.3.1-1.13.6-1.28,1.05-.83.72-.4.23-.49.11-.8.04-2.61.1-1.83-.12-1.42-.39Z" transform="translate(-2 -4)"/>
  <path id="Path_420" data-name="Path 420" d="M59.02,29.5l-.11,1.08-.31,1.04-.52.96-.69.84-.84.69-.96.52-1.04.31-1.08.11-1.08-.11-1.04-.31-.96-.52-.84-.69-.69-.84-.52-.96-.31-1.04-.11-1.08.11-1.08.31-1.04.52-.96.69-.84.84-.69.96-.52,1.04-.31,1.08-.11,1.08.11,1.04.31.96.52.84.69.69.84.52.96.31,1.04Zm-2.91.03-.2-.99-.56-.83-.83-.56-.99-.2-.99.2-.83.56-.56.83-.2.99.2.99.56.83.83.56.99.2.99-.2.83-.56.56-.83Z" transform="translate(-2 -4)"/>
  <path id="Path_421" data-name="Path 421" d="M92.294,33.366l-1.425,1.2-1.775.561-1.854-.161-1.652-.858-.905-.725-1.2-1.425-.561-1.775.161-1.854.858-1.652.963-1.2,1.425-1.2,1.775-.561,1.854.161,1.652.858.905.725,1.2,1.425.561,1.775-.161,1.854-.858,1.652Zm-1.2-3.846-.2-.98-.55-.84-.84-.55-.98-.2-.98.2-.84.55-.55.84-.2.98.2.98.55.84.84.55.98.2.98-.2.84-.55.55-.84Z" transform="translate(-2 -4)"/>
  <path id="Path_422" data-name="Path 422" d="M15.01,31l-.31,1.55-.88,1.31-1.31.88-1.55.31-1.55-.31L8.1,33.86l-.88-1.31L6.91,31l.31-1.55.88-1.31,1.31-.88,1.55-.31,1.55.31,1.31.88.88,1.31Zm-2.89.02-.33-.79L11,29.9l-.79.33-.33.79.33.79.79.33.79-.33Z" transform="translate(-2 -4)"/>
  <path id="Path_423" data-name="Path 423" d="M34.05,31.01l-.31,1.55-.87,1.31-1.31.87-1.55.31-1.55-.31-1.31-.87-.87-1.31-.31-1.55.31-1.55.87-1.31,1.31-.87,1.55-.31,1.55.31,1.31.87.87,1.31Zm-2.733.081L31,30.361l-.863-.349-.9.235-.411.682.32.729.863.349.9-.235Z" transform="translate(-2 -4)"/>
</svg>
