<svg id="Symbol_DE" xmlns="http://www.w3.org/2000/svg" width="95.55" height="24.97" viewBox="0 0 95.55 24.97">
  <path id="Path_424" data-name="Path 424" d="M32.98,22.78,33.1,4.85l.19-.45.45-.18,61.15-.14.72.1.48.32.24.51v.73l-.26,4.37.32,3.44.46.83.68,1.09.41,1.85.14,2.69-.17,3.19-.12.39-.34.37-.48.16-.49-.08-.4-.31-2.38-2.6-1.14-.78-1.1-.44-1.36-.17-1.56.18-.92.33-.83.51-1.94,1.87-.96,1.02-.86.35H58.93l-.86-.36-3.63-3.7-1.05-.71-1.25-.25-10.53.03-1.14.23-.96.65-3.88,3.98-.51.35-.74.11-.71-.26-.51-.56ZM43.3,6.644l-.332-.706-.734-.264-6.453.3-.706.332-.264.734.338,7.172.332.706.735.264,6.453-.3.706-.332.264-.734Zm9.4.126-.06-.21-.43-.55-.68-.22-5.62-.04-.52.12-.42.33-.23.47-.01.54,1.5,6.88.42.68.75.26,5.42.02.84-.34.36-.83L54,13.62Zm10.16.1-.44-.74-.8-.3L56.2,5.75l-.56.11-.45.35-.26.51-.01.58,1.39,6.73.44.73.8.3,5.34.1.56-.12.46-.34.26-.51.01-.57Zm10.24.14-.07-.23-.55-.7-.84-.27-4.85-.05-.98.34-.45.63-.08.78,1.01,6.32.5.91.97.37,5.17.07.58-.11.5-.33.33-.49.12-.58h0l-.04-.31Zm3.23,6.79.51.91.99.38,5.15.07.58-.1.5-.32.35-.48.14-.58h0l-.04-.44L83,7.06l-.53-.84-.93-.35-4.69-.14-.67.13-.55.4-.32.6-.04.67Zm9.77-.29.05.33.59.87.99.33,5.18-.01.6-.12.52-.33.36-.5.15-.59-.02-.36-.99-5.94-.19-.54-.37-.44-.49-.29-.57-.09-4.55.02-.59.11-.51.33-.36.48-.15.58-.01.23Z" transform="translate(-2.53 -4.08)"/>
  <path id="Path_425" data-name="Path 425" d="M3.74,5.07,28.8,4.96l.59.15.47.46.17.63-.1,10.48-.29.77-.41.32-.51.11-24.71.11-.86-.35-.37-.85L2.53,6.31V6.17l.4-.79Z" transform="translate(-2.53 -4.08)"/>
  <path id="Path_426" data-name="Path 426" d="M29.61,18.88l.02.01.39,1.78-.03,1.73h0l-.23,1.07-.12.25-.71.37-.72-.35-.92-1.08-.96-.82-1-.55L24.29,21l-1.13-.01-1.17.28-1.22.57-1.26.86-.35.21-.46.11-.1.01L15.26,23l-1.37-.35-1.82-.87-1.58-.63-1.52-.11h0l-1.14.26-1.11.57-1.08.87L4.59,23.91l-.32.24-.4.03-.35-.19-.21-.34-.29-1.92.23-2.15.25-.4.44-.15Z" transform="translate(-2.53 -4.08)"/>
  <path id="Path_427" data-name="Path 427" d="M46.05,25l-.31,1.55-.88,1.31-1.31.88L42,29.05l-1.55-.31-1.31-.88-.88-1.31L37.95,25l.31-1.55.88-1.31,1.31-.88L42,20.95l1.55.31,1.31.88.88,1.31Zm-2.93,0-.32-.76-.76-.32-.76.32-.32.76.32.76.76.32.76-.32Z" transform="translate(-2.53 -4.08)"/>
  <path id="Path_428" data-name="Path 428" d="M56.04,25.01l-.31,1.55-.87,1.31-1.31.87L52,29.05l-1.55-.31-1.31-.87-.87-1.31-.31-1.55.31-1.55.87-1.31,1.31-.87L52,20.97l1.55.31,1.31.87.87,1.31Zm-2.838.178-.221-.771-.784-.442-.888.147-.471.649.221.771.784.442.888-.147Z" transform="translate(-2.53 -4.08)"/>
  <path id="Path_429" data-name="Path 429" d="M94.05,25l-.31,1.55-.88,1.31-1.31.88L90,29.05l-1.55-.31-1.31-.88-.88-1.31L85.95,25l.31-1.55.88-1.31,1.31-.88L90,20.95l1.55.31,1.31.88.88,1.31Zm-2.743.091-.313-.729-.848-.35-.887.235-.406.682.313.729.848.35.887-.235Z" transform="translate(-2.53 -4.08)"/>
  <path id="Path_430" data-name="Path 430" d="M11.432,28.162l-.846.6-1.012.231L8.55,28.819l-.879-.552-.843-.8-.6-.847L6,25.612l.174-1.023.552-.879.825-.872.846-.6,1.012-.231,1.023.174.879.552.843.8.6.847.231,1.012-.174,1.023-.552.879Zm-.742-3.175L10,24.358,9.02,24.4l-.69.694v.935l.692.629L10,26.616l.69-.693Z" transform="translate(-2.53 -4.08)"/>
  <path id="Path_431" data-name="Path 431" d="M26.88,25.51l-.26,1.3-.73,1.1-1.1.73-1.3.26-1.3-.26-1.1-.73-.73-1.1-.26-1.3.26-1.3.73-1.1,1.1-.73,1.3-.26,1.3.26,1.1.73.73,1.1Zm-2.926-1.2-.424-.177-.425.174-.823.817-.177.424.174.425.747.752.424.177.425-.174.823-.817.177-.424-.174-.425Z" transform="translate(-2.53 -4.08)"/>
</svg>
