<svg id="Symbol_L" xmlns="http://www.w3.org/2000/svg" width="93.08" height="79.234" viewBox="0 0 93.08 79.234">
  <path id="Path_432" data-name="Path 432" d="M7,51.03l-2.27-.16-.62-.25-.22-.64-.04-2,.21-.65.62-.24,2.42-.13.54-.25.22-.56L7.81,7.69,8,7.12l.56-.19,38.76-.06.5.1.37.25,1.68,1.81,1.38,1.99h0l.67,1.22,3.3,6.36,4.75,8.54,5.39,9.76.45.48.63.19,7.42.14.78-.3.33-.77h0L75,26.97l.23-.55.55-.22h0l5.99.09.55.19.17.54-.11,8.75.32.9.82.48,9.24,1.64.73.39.36.76,3.08,24.94-.1.48-.46.15L88.5,65.3l-.56-.12-.45-.31-3.44-3.13-2.66-1.89-2.61-1.02L77,58.58l-1.77.05-1.89.36-1.84.63-1.91.94-1.97,1.26-1.85,1.45-1.79,1.71-.5.34-.48.09-13.84.2-1.07-.13-.82-.44h0l-.56-.74-.29-1.06-.61-2.83-1.05-2.68-1.48-2.58-1.84-2.33-2.19-2.05-2.43-1.68-2.54-1.22a22.7,22.7,0,0,0-3.06-.93c-.676-.052-2.548-.255-5.12-.245s-5.17.285-5.17.285h0a14.425,14.425,0,0,0-2.612.465A19.436,19.436,0,0,0,15.61,48.49l-2.96,1.9L8.96,53.38l-.4.15-.25-.34L7.85,51.7l-.3-.48ZM27.189,14.841l-.14-.34-.339-.141-11.28-.02-.34.14-.141.339-.018,10.42.14.34.339.141,11.28.02.34-.14.141-.339ZM52.14,25.71l.57-.29.13-.41-.13-.4-6.92-9.94-.07-.09-.5-.21-10.51-.08-.46.17-.24.42L34,15l.03,10.02.2.5.5.2Z" transform="translate(-3.85 -6.87)" fill="#0b0b0b"/>
  <path id="Path_433" data-name="Path 433" d="M35.47,52.18a14.722,14.722,0,0,1,2.43,2.21,12.857,12.857,0,0,1,1.96,2.44,13.032,13.032,0,0,1,1.54,2.73,11.809,11.809,0,0,1,1.05,2.88,13.15,13.15,0,0,1,.57,3.18,12.658,12.658,0,0,1,.03,3.21A12.692,12.692,0,0,1,42.53,72a13.106,13.106,0,0,1-1.05,3.07,12.755,12.755,0,0,1-1.54,2.83,13.737,13.737,0,0,1-2.04,2.61,13.305,13.305,0,0,1-2.42,2.22,18.492,18.492,0,0,1-2.86,1.89,4.529,4.529,0,0,1-1.65.7,9.6,9.6,0,0,1-1.93.48,11.829,11.829,0,0,1-2.12.25,7.425,7.425,0,0,1-2-.03,18.3,18.3,0,0,1-2.99-.48,13.431,13.431,0,0,1-2.71-.82,11.661,11.661,0,0,1-2.45-1.15,17.725,17.725,0,0,1-2.16-1.49h0a20.859,20.859,0,0,1-2-1.95,11.72,11.72,0,0,1-1.69-2.32A13.8,13.8,0,0,1,9.53,75.1a16.073,16.073,0,0,1-1.07-3.08,11.366,11.366,0,0,1-.52-2.9,11.385,11.385,0,0,1-.01-2.96,12.643,12.643,0,0,1,.51-3.03,13.293,13.293,0,0,1,1-2.94,23.175,23.175,0,0,1,1.44-2.75l1.84-2.48,2.15-2.06a15.871,15.871,0,0,1,2.45-1.66,6.514,6.514,0,0,1,2.51-.92,24.626,24.626,0,0,1,5.547-.711,33.243,33.243,0,0,1,5.643.411,19.221,19.221,0,0,1,2.361.925A7.361,7.361,0,0,1,35.47,52.18Z" transform="translate(-3.85 -6.87)" fill="#0b0b0b"/>
  <path id="Path_434" data-name="Path 434" d="M80.66,62.36l.34.3,1.78,1.29.42.19.26.15.22.28,1.04,1.55,1.24,2.04.69,2.37.32,2.25-.07,2.13-.44,2h0l-.76,1.74-1.08,1.63L83.21,81.8l-1.73,1.42-1.47.91-1.48.64-1.56.4-1.54.13-2.51-.35-2.34-.98-2.16-1.6-1.81-2.08-1.34-2.42-.83-2.68-.25-2.79.34-2.64.08-.3.58-1.5.97-1.5,1.3-1.47,1.95-1.8.82-.74.39-.26.54-.13,1.05-.23.87-.5.46-.25.49-.08H77l.53.1.41.25.85.5.95.17Z" transform="translate(-3.85 -6.87)" fill="#0b0b0b"/>
</svg>
