<svg id="Symbol_T" xmlns="http://www.w3.org/2000/svg" width="96.346" height="65.17" viewBox="0 0 96.346 65.17">
  <path id="Path_435" data-name="Path 435" d="M66.45,35.79l.14.45.45.15,4.95-.03.45-.15.15-.45L72.58,11l.16-.49.51-.17,6.92.01.44.15.14.43.06,24.82.13.3.31.13,15.74.01.24.08.07.22-.01,22.96-.14.35-.35.14-7.37.04-.74-.27-1.14-.99-2.3-1.79-1.85-.92-1.83-.63-1.9-.37-1.86-.06-2.58.39-2.48.92-2.47,1.49-2.34,1.98-.45.29-.54.1-25.14-.19-.38-.15-.17-.37-.5-3.82-1.14-3.58-1.76-3.36-2.29-2.97L32.8,43.16l-3.17-1.98-3.39-1.33-3.63-.68-3.63.01-3.52.66-2.57.9-2.54,1.23L7.84,43.53l-2.48,1.9L5,45.57l-.12-.36.16-34.73.12-.36L5.52,10H37.3l1,.27.73.74L53.15,35.9l.37.37.51.13,5.5-.1.58-.25.24-.58-.03-7.89.16-.47.44-.15,4.88-.07.51.16.16.5ZM21.9,16.87l-.128-.311-.311-.129-10.32-.018-.311.128-.129.311-.016,9.28.128.311.311.129,10.32.018.311-.128.129-.311Zm20.6,9.71.27-.15v-.31L37.6,16.61l-.27-.16-10.05.01-.31.31-.07,9.51.31.31Z" transform="translate(-0.954 -10)" fill="#0b0b0b"/>
  <rect id="Rectangle_419" data-name="Rectangle 419" width="3.38" height="4.56" rx="0.55" transform="translate(0.072 27.924) rotate(0.9)" fill="#0b0b0b"/>
  <circle id="Ellipse_7" data-name="Ellipse 7" cx="15.24" cy="15.24" r="15.24" transform="translate(4.386 34.631)" fill="#0b0b0b"/>
  <circle id="Ellipse_8" data-name="Ellipse 8" cx="8.37" cy="8.37" r="8.37" transform="translate(68.906 48.43)" fill="#0b0b0b"/>
</svg>
